<svg width="31" height="31" viewBox="0 0 31 31" fill="none" xmlns="http://www.w3.org/2000/svg">
<path d="M15.5 18.0833C17.6401 18.0833 19.375 16.3484 19.375 14.2083C19.375 12.0682 17.6401 10.3333 15.5 10.3333C13.3599 10.3333 11.625 12.0682 11.625 14.2083C11.625 16.3484 13.3599 18.0833 15.5 18.0833Z" stroke="#323F6B" stroke-width="1.9375" stroke-linecap="round" stroke-linejoin="round"/>
<path d="M22.807 21.5153L17.3264 26.9958C16.842 27.4797 16.1853 27.7515 15.5006 27.7515C14.8159 27.7515 14.1593 27.4797 13.6749 26.9958L8.19304 21.5153C6.74795 20.0701 5.76385 18.2289 5.36517 16.2244C4.9665 14.22 5.17117 12.1423 5.95329 10.2542C6.73541 8.36604 8.05986 6.75223 9.75916 5.61681C11.4585 4.48139 13.4563 3.87537 15.5 3.87537C17.5437 3.87537 19.5415 4.48139 21.2408 5.61681C22.9401 6.75223 24.2646 8.36604 25.0467 10.2542C25.8288 12.1423 26.0335 14.22 25.6348 16.2244C25.2361 18.2289 24.252 20.0701 22.807 21.5153V21.5153Z" stroke="#323F6B" stroke-width="1.9375" stroke-linecap="round" stroke-linejoin="round"/>
</svg>
