<svg width="44" height="44" viewBox="0 0 44 44" fill="none" xmlns="http://www.w3.org/2000/svg">
<path d="M18.3334 9.16667C18.3334 8.19421 18.7197 7.26158 19.4073 6.57394C20.095 5.88631 21.0276 5.5 22 5.5C22.9725 5.5 23.9051 5.88631 24.5928 6.57394C25.2804 7.26158 25.6667 8.19421 25.6667 9.16667C27.7721 10.1622 29.5669 11.7119 30.8588 13.6497C32.1507 15.5875 32.8908 17.8403 33 20.1667V25.6667C33.138 26.8065 33.5417 27.8979 34.1785 28.8532C34.8154 29.8085 35.6677 30.6009 36.6667 31.1667H7.33337C8.33243 30.6009 9.18469 29.8085 9.82155 28.8532C10.4584 27.8979 10.8621 26.8065 11 25.6667V20.1667C11.1092 17.8403 11.8494 15.5875 13.1413 13.6497C14.4331 11.7119 16.228 10.1622 18.3334 9.16667" stroke="white" stroke-width="2.75" stroke-linecap="round" stroke-linejoin="round"/>
<path d="M16.5 31.1667V33C16.5 34.4587 17.0795 35.8576 18.1109 36.8891C19.1424 37.9205 20.5413 38.5 22 38.5C23.4587 38.5 24.8576 37.9205 25.8891 36.8891C26.9205 35.8576 27.5 34.4587 27.5 33V31.1667" stroke="white" stroke-width="2.75" stroke-linecap="round" stroke-linejoin="round"/>
</svg>
