<svg width="35" height="34" viewBox="0 0 35 34" fill="none" xmlns="http://www.w3.org/2000/svg">
<path d="M8.83333 18.8333V4.16667C8.83333 3.68044 8.64018 3.21412 8.29636 2.87031C7.95255 2.52649 7.48623 2.33334 7 2.33334H3.33333C2.8471 2.33334 2.38079 2.52649 2.03697 2.87031C1.69315 3.21412 1.5 3.68044 1.5 4.16667V17C1.5 17.4862 1.69315 17.9525 2.03697 18.2964C2.38079 18.6402 2.8471 18.8333 3.33333 18.8333H8.83333ZM8.83333 18.8333C10.7783 18.8333 12.6435 19.606 14.0188 20.9812C15.3941 22.3565 16.1667 24.2217 16.1667 26.1667V28C16.1667 28.9725 16.553 29.9051 17.2406 30.5927C17.9282 31.2804 18.8609 31.6667 19.8333 31.6667C20.8058 31.6667 21.7384 31.2804 22.4261 30.5927C23.1137 29.9051 23.5 28.9725 23.5 28V18.8333H29C29.9725 18.8333 30.9051 18.447 31.5927 17.7594C32.2804 17.0718 32.6667 16.1391 32.6667 15.1667L30.8333 6C30.5697 4.8753 30.0695 3.90956 29.4082 3.24824C28.7469 2.58691 27.9602 2.26583 27.1667 2.33334H14.3333C12.8746 2.33334 11.4757 2.9128 10.4442 3.94425C9.4128 4.9757 8.83333 6.37465 8.83333 7.83334" stroke="#151757" stroke-width="2.75" stroke-linecap="round" stroke-linejoin="round"/>
</svg>
