<svg width="35" height="34" viewBox="0 0 35 34" fill="none" xmlns="http://www.w3.org/2000/svg">
<path d="M8.83333 15.1667V29.8333C8.83333 30.3196 8.64018 30.7859 8.29636 31.1297C7.95255 31.4735 7.48623 31.6667 7 31.6667H3.33333C2.8471 31.6667 2.38079 31.4735 2.03697 31.1297C1.69315 30.7859 1.5 30.3196 1.5 29.8333V17C1.5 16.5138 1.69315 16.0474 2.03697 15.7036C2.38079 15.3598 2.8471 15.1667 3.33333 15.1667H8.83333C10.7783 15.1667 12.6435 14.394 14.0188 13.0188C15.3941 11.6435 16.1667 9.77825 16.1667 7.83333V5.99999C16.1667 5.02753 16.553 4.0949 17.2406 3.40727C17.9282 2.71964 18.8609 2.33333 19.8333 2.33333C20.8058 2.33333 21.7384 2.71964 22.4261 3.40727C23.1137 4.0949 23.5 5.02753 23.5 5.99999V15.1667H29C29.9725 15.1667 30.9051 15.553 31.5927 16.2406C32.2804 16.9282 32.6667 17.8609 32.6667 18.8333L30.8333 28C30.5697 29.1247 30.0695 30.0904 29.4082 30.7518C28.7469 31.4131 27.9602 31.7342 27.1667 31.6667H14.3333C12.8746 31.6667 11.4757 31.0872 10.4442 30.0558C9.4128 29.0243 8.83333 27.6254 8.83333 26.1667" fill="white"/>
<path d="M8.83333 15.1667V29.8333C8.83333 30.3196 8.64018 30.7859 8.29636 31.1297C7.95255 31.4735 7.48623 31.6667 7 31.6667H3.33333C2.8471 31.6667 2.38079 31.4735 2.03697 31.1297C1.69315 30.7859 1.5 30.3196 1.5 29.8333V17C1.5 16.5138 1.69315 16.0474 2.03697 15.7036C2.38079 15.3598 2.8471 15.1667 3.33333 15.1667H8.83333ZM8.83333 15.1667C10.7783 15.1667 12.6435 14.394 14.0188 13.0188C15.3941 11.6435 16.1667 9.77825 16.1667 7.83333V5.99999C16.1667 5.02753 16.553 4.0949 17.2406 3.40727C17.9282 2.71964 18.8609 2.33333 19.8333 2.33333C20.8058 2.33333 21.7384 2.71964 22.4261 3.40727C23.1137 4.0949 23.5 5.02753 23.5 5.99999V15.1667H29C29.9725 15.1667 30.9051 15.553 31.5927 16.2406C32.2804 16.9282 32.6667 17.8609 32.6667 18.8333L30.8333 28C30.5697 29.1247 30.0695 30.0904 29.4082 30.7518C28.7469 31.4131 27.9602 31.7342 27.1667 31.6667H14.3333C12.8746 31.6667 11.4757 31.0872 10.4442 30.0558C9.4128 29.0243 8.83333 27.6254 8.83333 26.1667" stroke="black" stroke-width="2.75" stroke-linecap="round" stroke-linejoin="round"/>
</svg>
