<svg width="12" height="12" viewBox="0 0 12 12" fill="none" xmlns="http://www.w3.org/2000/svg">
<path fill-rule="evenodd" clip-rule="evenodd" d="M8.56254 0.375C8.28674 0.375 8.03764 0.539815 7.92979 0.79365C7.82194 1.04748 7.87621 1.3412 8.06766 1.53973L8.61153 2.10372L6.7014 4.01387C6.43292 4.28235 6.43292 4.71765 6.70141 4.98614C6.9699 5.25462 7.4052 5.25462 7.67368 4.98613L9.56615 3.09364L10.1301 3.67848C10.3247 3.88028 10.6224 3.94371 10.8823 3.83878C11.1423 3.73385 11.3125 3.48159 11.3125 3.20125L11.3125 1.0625C11.3125 0.682804 11.0047 0.375 10.625 0.375H8.56254ZM2.75686 11.375C3.03493 11.375 3.28561 11.2075 3.39202 10.9506C3.49844 10.6937 3.43962 10.398 3.243 10.2014L2.85071 9.80907L4.92364 7.73614C5.19212 7.46765 5.19212 7.03235 4.92364 6.76386C4.65515 6.49538 4.21985 6.49538 3.95136 6.76386L1.87844 8.83679L1.48613 8.44447C1.2895 8.24785 0.993794 8.18903 0.736891 8.29544C0.479989 8.40185 0.312485 8.65254 0.312487 8.93061L0.3125 10.6875C0.312503 11.0672 0.620308 11.375 1 11.375L2.75686 11.375Z" fill="#EAEAEA"/>
</svg>
